<!-- Generator: Adobe Illustrator 17.0.0, SVG Export Plug-In  -->
<svg version="1.1"
	 xmlns="http://www.w3.org/2000/svg" xmlns:xlink="http://www.w3.org/1999/xlink" xmlns:a="http://ns.adobe.com/AdobeSVGViewerExtensions/3.0/"
	 x="0px" y="0px" width="552.589px" height="716.273px" viewBox="0 0 552.589 716.273" enable-background="new 0 0 552.589 716.273"
	 xml:space="preserve">
<defs>
</defs>
<path d="M362.44,716.273H175.987c-2.91,0-5.273-2.363-5.277-5.274c0.004-2.914,2.367-5.273,5.277-5.273H362.44
	c2.911,0,5.274,2.359,5.278,5.273C367.714,713.914,365.354,716.273,362.44,716.273 M344.007,71.335
	c-5.996,0-11.418-4.113-12.836-10.203l-10.469-44.953c-1.652-7.094,2.758-14.18,9.852-15.832c7.097-1.652,14.183,2.758,15.836,9.852
	l10.468,44.957c1.653,7.093-2.757,14.179-9.851,15.832C346.022,71.218,345.015,71.331,344.007,71.335 M490.792,187.265
	c-0.883,0.004-1.766-0.086-2.629-0.262l-45.242-9.136c-7.137-1.442-11.758-8.399-10.32-15.539
	c1.445-7.141,8.402-11.758,15.543-10.317l45.246,9.137c7.132,1.441,11.754,8.398,10.312,15.539
	C502.437,182.949,496.94,187.265,490.792,187.265 M418.671,96.601c-3.797,0-7.567-1.629-10.176-4.785
	c-4.637-5.617-3.844-13.93,1.766-18.57l38.8-32.051c5.614-4.641,13.926-3.848,18.567,1.765c4.641,5.614,3.844,13.93-1.77,18.571
	l-38.797,32.05C424.702,95.535,421.733,96.605,418.671,96.601 M546.061,679.171H235.022l218.024-79.023
	c13.508-4.895,24.297-14.754,30.391-27.77c6.089-13.015,6.742-27.621,1.847-41.129l-14.133-38.988
	c-1.734-4.793-7.031-7.269-11.824-5.531c-4.793,1.734-7.273,7.031-5.531,11.824l14.129,38.988
	c3.215,8.872,2.785,18.461-1.215,27.012c-4,8.543-11.086,15.024-19.961,18.238l-245.352,88.934
	c-8.875,3.211-18.464,2.781-27.011-1.219c-8.547-4-15.024-11.086-18.239-19.961L20.581,276.527
	c-6.637-18.309,2.859-38.61,21.172-45.246l245.355-88.938c8.875-3.211,18.465-2.777,27.012,1.219
	c8.547,4,15.027,11.09,18.238,19.945l55.375,153.317c1.731,4.797,7.02,7.277,11.821,5.547c4.793-1.731,7.273-7.024,5.543-11.817
	L349.718,157.23c-4.895-13.508-14.758-24.301-27.77-30.395c-13.015-6.086-27.621-6.742-41.129-1.847L35.46,213.921
	C7.577,224.031-6.884,254.937,3.222,282.82l135.566,374.019c6.594,18.192,22.039,30.66,39.723,34.332
	c1.05,0.688,2.285,1.055,3.543,1.055h4.625c0.91,0.047,1.82,0.074,2.734,0.078c0.914,0,1.824-0.031,2.742-0.078h353.906
	c1.731,0,3.391-0.687,4.618-1.914c1.222-1.223,1.91-2.883,1.91-4.613c0-1.731-0.688-3.391-1.91-4.614
	C549.452,679.859,547.792,679.171,546.061,679.171 M482.015,284.199l-14.34-7.782c-5.727-3.105-13.926,0.938-18.321,9.032
	L330.011,505.414c-0.532,0.98-0.805,2.062-0.77,3.054l0.781,24.336c-0.378,0.024-0.753,0.106-1.105,0.238l-37.074,13.817
	c-2.047,0.762-3.09,3.039-2.328,5.09c0.765,2.047,3.043,3.09,5.089,2.324l35.684-13.297l0.008,0.281
	c0.09,2.688,2.297,3.883,4.59,2.492l28.066-16.992c0.848-0.515,1.606-1.332,2.137-2.312l119.344-219.969
	C488.823,296.386,487.741,287.304,482.015,284.199 M215.226,575.421l-27.207,10.137c-0.985,0.367-1.782,1.109-2.219,2.063
	c-0.434,0.957-0.473,2.043-0.106,3.027c0.575,1.547,2.055,2.574,3.707,2.574c0.473,0,0.942-0.082,1.383-0.25l27.203-10.141
	c0.985-0.363,1.782-1.105,2.219-2.062c0.438-0.953,0.477-2.039,0.109-3.023c-0.367-0.985-1.109-1.782-2.062-2.219
	C217.296,575.089,216.21,575.05,215.226,575.421 M272.069,554.226l-37.07,13.82c-1.352,0.473-2.344,1.641-2.59,3.051
	c-0.246,1.41,0.289,2.848,1.399,3.75c1.109,0.906,2.621,1.141,3.953,0.613l37.074-13.82c0.98-0.363,1.781-1.105,2.215-2.062
	c0.437-0.954,0.476-2.043,0.109-3.024c-0.367-0.984-1.109-1.781-2.062-2.219C274.14,553.898,273.054,553.859,272.069,554.226
	 M162.952,493.074c-1.652,0.004-3.133-1.024-3.711-2.575c-0.762-2.046,0.278-4.324,2.324-5.089l23.266-8.672
	c2.047-0.762,4.324,0.277,5.09,2.328c0.762,2.047-0.277,4.324-2.328,5.086l-23.262,8.672
	C163.89,492.992,163.425,493.078,162.952,493.074 M205.987,477.035c-1.656,0-3.133-1.032-3.707-2.579
	c-0.765-2.05,0.278-4.328,2.324-5.089l37.071-13.821c2.047-0.761,4.324,0.278,5.09,2.325c0.367,0.984,0.328,2.074-0.106,3.027
	c-0.437,0.957-1.234,1.699-2.219,2.062l-37.074,13.821C206.925,476.949,206.456,477.035,205.987,477.035 M262.827,455.847
	c-1.648-0.004-3.129-1.027-3.707-2.574c-0.367-0.984-0.328-2.074,0.109-3.027c0.438-0.957,1.235-1.7,2.219-2.063l37.071-13.824
	c0.984-0.367,2.074-0.328,3.027,0.109c0.953,0.434,1.695,1.235,2.062,2.215c0.368,0.984,0.329,2.074-0.109,3.027
	c-0.434,0.954-1.23,1.696-2.215,2.063l-37.074,13.82C263.769,455.761,263.3,455.847,262.827,455.847 M319.675,434.656
	c-1.914,0-3.555-1.371-3.895-3.258c-0.34-1.883,0.719-3.738,2.512-4.406l37.07-13.821c0.985-0.367,2.075-0.328,3.028,0.11
	c0.957,0.433,1.695,1.23,2.062,2.215c0.367,0.984,0.328,2.07-0.105,3.027c-0.438,0.953-1.235,1.695-2.219,2.062l-37.074,13.821
	C320.612,434.57,320.144,434.656,319.675,434.656"/>
</svg>